<svg width="286" height="69" viewBox="0 0 286 69" fill="none" xmlns="http://www.w3.org/2000/svg">
<g clip-path="url(#clip0_1_2)">
<path fill-rule="evenodd" clip-rule="evenodd" d="M61.0311 43.4392L57.4926 36.2787L55.8773 43.4392L50.6466 67.0553H42.1082L53.8004 16.4495H54.7234L70.2617 43.7835L74.877 52.9407L79.4924 43.7835L94.723 16.4495H95.5691L107.723 67.0553H99.2614L93.5691 43.4392L91.8768 36.2787L88.8 43.4392L75.1078 67.0553H74.6463L61.0311 43.4392ZM135.994 16.3806L163.224 67.0553H153.302L148.455 57.1407H122.599H116.077L121.075 60.1228L117.687 67.0553H108.071L135.148 16.3806H135.994ZM132.148 37.9311L125.994 50.1867H145.071L138.994 38L135.686 31.046H135.532L132.148 37.9311ZM196.191 67.0553L184.806 47.9146C182.448 48.0065 180.345 48.0523 178.499 48.0523H176.345V67.0553H167.961V16.4495H180.807C187.32 16.4495 192.678 17.6659 196.883 20.0986C201.089 22.4855 203.191 26.387 203.191 31.8033C203.191 35.2001 202.294 38.1377 200.499 40.6163C198.755 43.0492 196.14 44.9309 192.653 46.2621L206.114 67.0553H196.191ZM181.807 41.7868C186.832 41.7868 190.268 40.8229 192.114 38.895C194.012 36.9214 194.96 34.5805 194.96 31.8722C194.96 25.8592 190.473 22.8527 181.499 22.8527H176.345L170.592 22.8527L176.345 25.7955V41.7868H181.807Z" fill="white"/>
<path fill-rule="evenodd" clip-rule="evenodd" d="M61.0311 43.4392L57.4926 36.2787L55.8773 43.4392L50.6466 67.0553H42.1082L53.8004 16.4495H54.7234L70.2617 43.7835L74.877 52.9407L79.4924 43.7835L94.723 16.4495H95.5691L107.723 67.0553H99.2614L93.5691 43.4392L91.8768 36.2787L88.8 43.4392L75.1078 67.0553H74.6463L61.0311 43.4392ZM135.994 16.3806L163.224 67.0553H153.302L148.455 57.1407H122.599H116.077L121.075 60.1228L117.687 67.0553H108.071L135.148 16.3806H135.994ZM132.148 37.9311L125.994 50.1867H145.071L138.994 38L135.686 31.046H135.532L132.148 37.9311ZM196.191 67.0553L184.806 47.9146C182.448 48.0065 180.345 48.0523 178.499 48.0523H176.345V67.0553H167.961V16.4495H180.807C187.32 16.4495 192.678 17.6659 196.883 20.0986C201.089 22.4855 203.191 26.387 203.191 31.8033C203.191 35.2001 202.294 38.1377 200.499 40.6163C198.755 43.0492 196.14 44.9309 192.653 46.2621L206.114 67.0553H196.191ZM181.807 41.7868C186.832 41.7868 190.268 40.8229 192.114 38.895C194.012 36.9214 194.96 34.5805 194.96 31.8722C194.96 25.8592 190.473 22.8527 181.499 22.8527H176.345L170.592 22.8527L176.345 25.7955V41.7868H181.807Z" fill="white"/>
<path fill-rule="evenodd" clip-rule="evenodd" d="M224.428 16.4495H215.813V67.0553H224.428V16.4495ZM285.346 67.0553L258.116 16.3806H257.27L230.193 67.0553H239.809L243.207 60.1022L238.244 57.1407H244.766H270.577L275.424 67.0553H285.346ZM248.116 50.1867L254.27 37.9311L257.654 31.046H257.808L261.116 38L267.193 50.1867H248.116Z" fill="white"/>
<path d="M2.7079 68C2.7079 68 1.37851 66.8221 6.5299 65.3497C11.6813 63.8773 14.9586 64.233 17.285 63.2515C19.6115 62.27 24.7758 59.7841 25.3076 58.135C25.8393 56.4859 24.9752 54.3067 24.4767 53.4233C23.9782 52.5399 23.3135 52.2454 21.4856 51.8037C19.6576 51.362 13.5092 53.2761 12.6783 53.4233C11.8475 53.5706 10.2616 53.188 9.35486 52.2454C8.09204 50.9326 9.35486 47.8282 9.35486 47.8282C9.07791 47.8774 8.32458 47.8871 7.52695 47.5337C6.72931 47.1804 6.5299 46.1105 6.5299 45.6196C6.5299 45.1287 7.1946 44.8834 7.1946 44.8834L5.20051 44.1472C4.75739 43.9508 4.00406 43.4405 4.53582 42.9693C5.20051 42.3804 6.5299 41.9387 6.5299 40.908C6.5299 40.0834 4.64659 39.3864 3.70495 39.1411C2.76329 38.8958 0.993293 38.3987 1.71086 37.8159C3.70495 36.1963 5.20051 34.135 5.20051 34.135C5.58826 33.546 6.27848 32.6864 6.36373 31.6319C6.44469 30.6303 6.17469 30.0403 5.69903 29.1289C5.09921 27.9795 4.15172 27.6874 3.37259 26.6258C2.77115 25.8063 2.44585 25.3273 2.0432 24.4172C1.46256 23.1048 1.36821 22.2863 1.21233 20.8835C1.02148 19.1658 0.783199 18.1097 1.37851 16.4663C1.76 15.4131 2.1055 14.8348 2.87407 13.9632C3.58097 13.1616 4.059 12.733 5.03434 12.1963C5.70046 11.8298 6.10476 11.6398 6.86225 11.4602C8.05335 11.1777 9.09795 11.2382 10.3057 11.0184C11.9548 10.7183 15.4229 7.4033 19.6576 6.74849C21.8951 6.40251 24.1905 6.45402 25.4737 6.74849C26.757 7.04297 30.4589 8.36813 30.4589 8.36813C30.4589 8.36813 32.0773 8.74739 32.9516 8.36813C33.7798 8.00874 33.9417 7.43204 34.4472 6.74849C35.0038 5.99569 35.0161 5.41701 35.6104 4.68715C36.201 3.96174 36.7181 3.41106 37.4383 3.0675C38.1585 2.72394 39.1841 2.16341 40.4294 2.03683C41.3344 1.94483 42.3035 2.03685 42.7559 2.18407C43.2082 2.33129 44.4811 2.95444 45.4146 3.65646C46.2199 4.26215 46.6031 4.67831 47.2425 5.42334C48.4373 6.81525 49.0754 7.70555 49.569 9.3988C50.1207 11.2917 50.1662 12.5229 49.569 14.4049C49.1994 15.5687 48.8657 16.2184 48.0734 17.2025C47.5663 17.8322 47.2213 18.152 46.5779 18.6749C46.0325 19.118 45.729 19.3872 45.0823 19.7056C44.4183 20.0323 43.9962 20.1501 43.2544 20.2945C42.0499 20.5289 41.2407 20.7025 40.0971 20.2945C39.1565 19.9591 38.7195 19.535 38.103 18.8221C37.5732 18.2098 37.4373 17.7686 37.1059 17.0552C36.7932 16.3827 36.7224 15.9717 36.4412 15.2884C36.0325 14.2952 35.7237 13.7659 35.278 12.7853C35.1474 12.4981 35.054 12.3434 34.9457 12.0491C34.6409 11.2219 34.3634 10.682 34.6133 9.84052C34.8609 9.00638 35.2873 8.53616 36.1089 8.07365C36.8936 7.6319 37.2259 7.4864 38.103 7.33745C38.8677 7.20753 39.3227 7.26392 40.0971 7.33745C40.7551 7.39991 41.1436 7.4159 41.7588 7.63193C42.5977 7.92638 42.5222 7.92187 42.922 8.22089C43.5126 8.66258 43.9191 9.3988 43.9191 9.3988" stroke="white" stroke-width="3.5" stroke-linecap="round"/>
</g>
<defs>
<clipPath id="clip0_1_2">
<rect width="285.281" height="68.2527" fill="white" transform="translate(0.35955)"/>
</clipPath>
</defs>
</svg>
